<svg width="30" height="30" viewBox="0 0 30 30" fill="none" xmlns="http://www.w3.org/2000/svg">
<path fill-rule="evenodd" clip-rule="evenodd" d="M15 0.5C6.7125 0.5 0 7.2125 0 15.5C0 22.1375 4.29375 27.7438 10.2562 29.7313C11.0062 29.8625 11.2875 29.4125 11.2875 29.0188C11.2875 28.6625 11.2688 27.4812 11.2688 26.225C7.5 26.9187 6.525 25.3063 6.225 24.4625C6.05625 24.0313 5.325 22.7 4.6875 22.3438C4.1625 22.0625 3.4125 21.3688 4.66875 21.35C5.85 21.3313 6.69375 22.4375 6.975 22.8875C8.325 25.1562 10.4812 24.5187 11.3437 24.125C11.475 23.15 11.8688 22.4938 12.3 22.1188C8.9625 21.7438 5.475 20.45 5.475 14.7125C5.475 13.0812 6.05625 11.7313 7.0125 10.6813C6.8625 10.3063 6.3375 8.76875 7.1625 6.70625C7.1625 6.70625 8.41875 6.3125 11.2875 8.24375C12.4875 7.90625 13.7625 7.7375 15.0375 7.7375C16.3125 7.7375 17.5875 7.90625 18.7875 8.24375C21.6562 6.29375 22.9125 6.70625 22.9125 6.70625C23.7375 8.76875 23.2125 10.3063 23.0625 10.6813C24.0188 11.7313 24.6 13.0625 24.6 14.7125C24.6 20.4687 21.0938 21.7438 17.7562 22.1188C18.3 22.5875 18.7688 23.4875 18.7688 24.8937C18.7688 26.9 18.75 28.5125 18.75 29.0188C18.75 29.4125 19.0312 29.8813 19.7812 29.7313C22.759 28.7259 25.3465 26.8121 27.1796 24.2592C29.0127 21.7063 29.9991 18.6429 30 15.5C30 7.2125 23.2875 0.5 15 0.5Z" fill="#666666"/>
</svg>
