<svg width="30" height="31" viewBox="0 0 30 31" fill="none" xmlns="http://www.w3.org/2000/svg">
<path d="M15 1.09998C7.04698 1.09998 0.599976 7.54698 0.599976 15.5C0.599976 23.453 7.04698 29.9 15 29.9C22.953 29.9 29.4 23.453 29.4 15.5C29.4 7.54698 22.953 1.09998 15 1.09998ZM11.475 21.4685H8.55898V12.0845H11.475V21.4685ZM9.99898 10.9325C9.07798 10.9325 8.48248 10.28 8.48248 9.47298C8.48248 8.64948 9.09598 8.01648 10.0365 8.01648C10.977 8.01648 11.553 8.64948 11.571 9.47298C11.571 10.28 10.977 10.9325 9.99898 10.9325ZM22.125 21.4685H19.209V16.268C19.209 15.0575 18.786 14.2355 17.7315 14.2355C16.926 14.2355 16.4475 14.792 16.236 15.3275C16.158 15.518 16.1385 15.788 16.1385 16.0565V21.467H13.221V15.077C13.221 13.9055 13.1835 12.926 13.1445 12.083H15.678L15.8115 13.3865H15.87C16.254 12.7745 17.1945 11.8715 18.768 11.8715C20.6865 11.8715 22.125 13.157 22.125 15.92V21.4685V21.4685Z" fill="#666666"/>
</svg>
