<svg width="105" height="100" viewBox="0 0 105 100" fill="none" xmlns="http://www.w3.org/2000/svg">
<path id="tech-stack-5" d="M72.6971 69.7606C76.5688 69.3598 79.5061 66.0221 79.3725 62.0164C79.2393 58.0111 75.9012 54.8065 71.8959 54.8065H71.6291C67.4897 54.9401 64.2856 58.4115 64.4193 62.5504C64.5529 64.5533 65.3537 66.2889 66.5553 67.4906C62.016 76.4365 55.0734 82.9787 44.6594 88.4529C37.5832 92.1914 30.2402 93.5266 22.8971 92.5922C16.8889 91.791 12.216 89.1209 9.27827 84.7143C5.00614 78.1721 4.60573 71.0955 8.21065 64.0192C10.7475 58.9455 14.7525 55.2069 17.2893 53.3377C16.7553 51.602 15.9541 48.6647 15.5537 46.5287C-3.80574 60.5479 -1.80287 79.5074 4.07172 88.4529C8.47745 95.1291 17.4229 99.268 27.3029 99.268C29.9729 99.268 32.643 99.0008 35.3135 98.3336C52.4033 94.9955 65.3541 84.8479 72.6971 69.7606V69.7606ZM96.1955 53.2045C86.0483 41.3213 71.0951 34.7791 54.0053 34.7791H51.8693C50.6676 32.3758 48.1307 30.7733 45.327 30.7733H45.0598C40.9213 30.907 37.7172 34.3783 37.8504 38.5176C37.984 42.5229 41.3217 45.7274 45.327 45.7274H45.5938C48.5311 45.5938 51.068 43.7246 52.1361 41.1877H54.5393C64.6865 41.1877 74.2992 44.125 82.9779 49.8664C89.6533 54.2725 94.4598 60.0139 97.1299 66.9565C99.3996 72.5643 99.266 78.0385 96.8627 82.7119C93.1246 89.7881 86.8496 93.6602 78.5717 93.6602C73.2311 93.6602 68.1578 92.0578 65.4873 90.8561C64.0188 92.1914 61.3484 94.3274 59.4791 95.6631C65.2205 98.3332 71.0951 99.802 76.7025 99.802C89.5197 99.802 98.9992 92.7254 102.604 85.6492C106.476 77.9049 106.209 64.5533 96.1955 53.2045V53.2045ZM28.3709 72.0299C28.5045 76.0356 31.8422 79.2397 35.8475 79.2397H36.1147C40.2537 79.1065 43.4578 75.6348 43.3242 71.4959C43.191 67.4901 39.8529 64.286 35.8475 64.286H35.5807C35.3135 64.286 34.9127 64.286 34.6463 64.4192C29.1721 55.3401 26.9025 45.4602 27.7037 34.7787C28.2373 26.7676 30.9078 19.8246 35.5807 14.0832C39.4525 9.14302 46.9291 6.73974 52.0029 6.60654C66.1549 6.33933 72.1627 23.9635 72.5635 31.0401C74.2992 31.4406 77.2365 32.3754 79.2393 33.043C77.6369 11.4135 64.2856 0.197937 51.4688 0.197937C39.4525 0.197937 28.3709 8.87663 23.9647 21.6942C17.8234 38.7844 21.8287 55.207 29.3053 68.1582C28.6381 69.0926 28.2373 70.5615 28.3709 72.0303V72.0299Z" fill="#764ABC"/>
</svg>
