<svg width="89" height="88" viewBox="0 0 89 88" fill="none" xmlns="http://www.w3.org/2000/svg">
<g clip-path="url(#clip0_2317_449)">
<path d="M0.918091 76.2821C0.918091 82.4781 5.99837 87.5 12.2649 87.5H77.5709C83.8385 87.5 88.9181 82.4774 88.9181 76.2821V11.7182C88.9181 5.52187 83.8378 0.5 77.5712 0.5H12.2653C5.99768 0.5 0.918091 5.52255 0.918091 11.7179V76.2818V76.2821Z" fill="#563D7C"/>
<path d="M37.4099 38.9832V26.6629H48.3793C49.4243 26.6629 50.4315 26.7489 51.4015 26.9212C52.3716 27.0931 53.2299 27.4003 53.9762 27.8431C54.7222 28.286 55.3193 28.9007 55.7672 29.6875C56.2147 30.4746 56.4388 31.4829 56.4388 32.7121C56.4388 34.9255 55.7672 36.5241 54.4238 37.5076C53.0808 38.4915 51.3644 38.9832 49.2748 38.9832H37.4099V38.9832ZM25.6938 17.6621V70.3379H51.5136C53.9016 70.3379 56.2274 70.0429 58.491 69.4526C60.7546 68.8623 62.7693 67.9525 64.5355 66.723C66.3014 65.4934 67.707 63.907 68.7516 61.9645C69.7966 60.0216 70.3188 57.7222 70.3188 55.0663C70.3188 51.7709 69.5103 48.9553 67.8936 46.6192C66.2766 44.2828 63.8264 42.6474 60.5429 41.7129C62.9309 40.5819 64.7346 39.1307 65.9535 37.3601C67.1721 35.5895 67.7816 33.3765 67.7816 30.7203C67.7816 28.2612 67.3711 26.1956 66.5503 24.5232C65.7294 22.8512 64.5727 21.5108 63.0801 20.5025C61.5879 19.4942 59.7969 18.7686 57.7073 18.3262C55.618 17.8833 53.3045 17.6621 50.7673 17.6621H25.6938V17.6621ZM37.4099 61.3371V46.8771H50.1702C52.7074 46.8771 54.7473 47.4548 56.2897 48.611C57.8317 49.7668 58.6031 51.6971 58.6031 54.4023C58.6031 55.7797 58.3666 56.9107 57.8939 57.796C57.4213 58.6813 56.7871 59.3823 55.9909 59.8986C55.1952 60.4151 54.2746 60.7839 53.2299 61.0054C52.1849 61.2263 51.0908 61.3371 49.9464 61.3371H37.4099V61.3371Z" fill="white"/>
</g>
<defs>
<clipPath id="clip0_2317_449">
<rect width="88" height="87" fill="white" transform="translate(0.918091 0.5)"/>
</clipPath>
</defs>
</svg>
