<svg width="120" height="121" viewBox="0 0 120 121" fill="none" xmlns="http://www.w3.org/2000/svg">
<g clip-path="url(#clip0_2317_473)">
<path d="M67.365 120.245C65.8012 119.971 64.1812 119.229 63.2625 118.408C62.6388 117.753 62.2829 116.889 62.265 115.985C62.265 115.066 62.7337 113.776 63.4762 112.49C63.9262 111.766 64.2787 110.986 64.53 110.165C64.6875 109.599 65.0175 108.68 65.2725 108.095L65.7225 107.023L65.8387 99.8563C65.8987 95.8925 66.015 92.2213 66.1125 91.6513C66.3675 90.0088 66.795 88.4075 67.3612 86.8475L67.7925 85.8125L67.1662 85.4413C66.6 85.0888 66.1312 84.6013 64.275 82.3925C61.9912 79.6963 58.9837 78.2113 54.7237 77.705C53.3362 77.57 51.93 77.4688 50.5237 77.4125C44.2725 77.12 40.6987 75.8113 37.4775 72.6463C35.0737 70.2838 33.825 67.5275 33.3187 63.4663C32.6362 57.9763 31.875 55.1638 30.4687 52.88C30.1221 52.316 29.7228 51.7861 29.2762 51.2975L28.71 50.7313L27.4612 51.5338C26.7787 51.9838 25.8187 52.55 25.35 52.805C23.7862 53.6638 22.3012 54.62 20.8762 55.655C17.3812 58.1938 13.5712 61.3775 11.4825 63.4663C10.545 64.4038 10.0575 64.8125 9.83998 64.775C8.41498 64.5613 9.50623 58.3888 11.8312 53.7388C14.8012 47.7425 19.8 42.215 25.5825 38.4838C30.33 35.4163 38.0062 31.1975 41.5575 29.7125C47.865 27.0763 56.0287 24.2225 61.6162 22.7C62.79 22.3663 63.51 22.0738 63.9975 21.7438C65.0925 20.9825 66.165 20.6113 67.395 20.5925C68.43 20.5738 68.5275 20.555 69.525 19.8875C70.6987 19.1263 71.0475 19.085 72.2212 19.4975L72.9825 19.7713L73.92 19.1263L74.8575 18.5L76.2037 18.5188C77.2387 18.5375 77.7075 18.5 78.1575 18.305C78.7237 18.05 78.7425 18.0125 78.9 17.075C79.2525 15.0425 79.29 14.0263 79.0762 12.7963C78.8025 11.1763 78.765 4.8875 79.0387 3.65375C79.3312 2.32625 79.5262 2.0525 80.5237 1.565C82.0087 0.841252 83.1225 0.627502 85.68 0.627502C88.8037 0.627502 90.3862 1.05875 91.56 2.19125C92.6137 3.2075 92.79 5.58875 92.2425 11.1763C91.9087 14.3975 91.8712 15.2975 91.9687 17.405C92.0062 18.7513 92.1037 20.0225 92.145 20.1988C92.2237 20.5325 92.3025 20.5513 93.435 20.57C94.5487 20.5888 94.7437 20.6488 95.7975 21.1963C96.8137 21.725 97.575 22.37 97.7325 22.8388C97.7512 22.9363 97.9275 22.9363 98.2387 22.8388C98.8425 22.6625 99.3712 22.8575 99.8025 23.3863C100.057 23.72 100.211 23.7763 100.8 23.7763C101.602 23.7763 101.895 23.9713 102.559 24.95C102.869 25.3893 103.295 25.7344 103.789 25.9475C104.884 26.495 106.369 28.0175 106.935 29.2288C107.812 31.025 107.989 33.1138 107.441 34.9888C107.246 35.6938 107.246 35.7125 107.655 36.395C108.514 37.8613 108.829 39.6575 108.476 41.18L108.281 42.08L108.866 42.665C111.776 45.575 111.345 50.3225 107.794 54.56C107.397 55.044 107.062 55.5756 106.796 56.1425C106.114 57.9575 105.33 59.2288 104.317 60.2825L103.282 61.3363H102.229C101.175 61.3363 99.69 60.9838 98.79 60.515C98.4187 60.32 98.4 60.32 98.4787 60.5525C98.715 61.4113 99.3 64.9063 99.495 66.8413C99.8062 69.8113 99.7087 74.1275 99.3 75.9838C99.0012 77.3586 98.5008 78.6816 97.815 79.91C97.425 80.5363 97.4062 80.6713 97.4812 81.4325C97.5975 82.505 97.3462 84.305 96.915 85.4938C96.3862 86.8813 96.1912 87.5263 96.075 88.2275C95.9775 88.8313 95.9775 88.8313 96.4087 88.8313C96.975 88.8313 97.2862 89.165 97.2862 89.8288C97.2862 90.1213 97.0312 91.7038 96.72 93.3238C95.8612 97.8763 95.8012 98.3825 95.8012 102.796C95.7825 107.349 95.7825 107.308 96.8175 107.99L99.1425 109.494C101.143 110.821 103.285 111.922 105.529 112.775C108.791 114.065 109.241 114.395 109.241 115.49C109.241 115.978 109.144 116.154 108.735 116.544C107.486 117.755 105.022 118.029 100.061 117.5C97.4832 117.258 94.8955 117.135 92.3062 117.129C85.47 117.031 84.4725 116.795 83.5762 115.096C83.07 114.121 83.1675 112.85 83.8687 110.761C84.18 109.843 84.4537 108.905 84.69 107.949C85.1587 105.684 84.8475 102.988 83.7525 99.9425L82.815 97.3438C81.8962 94.7075 81.39 89.8813 81.9375 88.79C82.035 88.5763 82.2112 88.535 82.68 88.5538L83.265 88.6138L83.7525 87.5975C84.1237 86.795 84.5325 86.27 85.6462 85.1563L87.0712 83.7313L86.9925 82.8125C86.9325 81.935 85.7812 77.675 85.6237 77.6938C85.5637 77.6938 85.2525 78.125 84.9 78.6688C84.0412 79.9588 82.1475 81.95 81.0712 82.6738C80.6025 82.985 80.2125 83.3563 80.2125 83.4763C80.1937 84.005 79.7437 85.04 79.1962 85.76C78.6675 86.465 78.63 86.5813 78.7087 87.2038C78.8437 88.1225 78.5512 91.07 78.2025 92.615C77.8863 93.7622 77.4541 94.8742 76.9125 95.9338C75.5662 98.7275 74.55 101.225 74.295 102.38C74.1108 103.492 73.9931 104.614 73.9425 105.74C73.8825 107.068 73.7475 108.358 73.65 108.631C73.515 109.003 73.515 109.295 73.6312 109.861C73.7287 110.27 73.7887 111.189 73.7662 111.913C73.7475 112.91 73.8262 113.555 74.1187 114.725C74.625 116.716 74.7225 117.969 74.49 118.711C74.3325 119.18 74.1787 119.356 73.65 119.611C72.4762 120.215 69.1575 120.549 67.3612 120.238L67.365 120.245ZM72.1087 118.644C72.7912 118.449 73.38 117.864 73.38 117.335C73.38 117.099 73.185 116.416 72.9487 115.813C72.48 114.661 71.6775 111.613 71.6775 111.106C71.6775 110.851 71.6962 110.833 72.0862 111.046L72.5175 111.283V110.735C72.4549 110.23 72.3431 109.733 72.1837 109.25C71.8125 108.136 71.775 108.118 69.4087 107.979L67.8075 107.9L67.2225 108.466C66.9008 108.797 66.6189 109.165 66.3825 109.561C66.1275 110.068 66.03 110.833 66.1875 111.005C66.225 111.065 66.6187 111.005 67.0462 110.908C67.3 110.832 67.5618 110.787 67.8262 110.773C67.8262 110.791 67.395 111.144 66.8512 111.515C64.5075 113.274 63.6862 114.346 63.6862 115.715C63.6862 117.14 65.0325 118.254 67.1437 118.588C68.5875 118.801 71.4 118.861 72.105 118.648L72.1087 118.644ZM103.886 116.319C104.471 115.614 104.392 114.894 103.65 114.073C103.219 113.641 102.731 113.27 102.184 112.978C101.636 112.685 101.089 112.351 100.541 112.003C99.551 111.361 98.5338 110.761 97.4925 110.206C96.5925 109.719 95.715 109.209 94.8562 108.665L94.5037 108.391V103.021C94.5037 97.73 94.485 97.6513 94.2112 97.73C92.8425 98.1013 90.5775 98.2775 87.7087 98.2175L84.6037 98.18L85.0537 99.275C85.8937 101.345 86.325 104.12 86.325 107.304C86.325 108.496 86.2462 108.924 85.9537 109.764C85.7962 110.173 85.6612 110.585 85.5225 110.994C85.4625 111.17 85.68 111.305 86.4787 111.541C87.0637 111.718 87.9225 111.894 88.4137 111.95L89.3137 112.048L89.2162 112.948C89.1187 113.964 89.235 115.036 89.49 115.37C89.6475 115.565 90.2325 115.644 92.9475 115.76C94.9987 115.858 97.2262 116.071 98.9812 116.326C100.504 116.563 102.146 116.758 102.634 116.758C103.455 116.776 103.534 116.739 103.882 116.326L103.886 116.319ZM72.6187 107.18C72.6975 107.12 72.8137 106.066 72.855 104.818C73.0125 101.323 73.1475 100.813 74.9062 96.8675C76.35 93.6463 77.115 90.6388 77.055 88.5088L77.0175 87.2375L76.47 87.7663C75.3375 88.8988 76.1175 87.1213 77.4675 85.5388C78.4837 84.3275 78.8362 83.6638 78.99 82.5913C79.0687 82.16 79.2262 81.9463 79.89 81.44C82.3735 79.5639 84.2871 77.0349 85.4175 74.135C85.6912 73.43 86.3925 71.03 86.9812 68.8025C88.0762 64.6813 88.6612 62.9038 89.19 62.1425C89.385 61.85 89.4637 61.79 89.4262 61.985C89.143 63.0324 88.9214 64.0955 88.7625 65.1688C88.605 66.125 88.3125 68 88.1175 69.3088C87.7462 71.9863 87.3562 73.7038 86.8275 75.0313L86.475 75.9313L87.4125 78.3538C88.3875 80.8325 88.8375 82.6325 88.9162 84.3688L88.9762 85.3438L88.215 85.5013C87.2102 85.6791 86.3136 86.2396 85.7137 87.065C85.05 88.0213 84.6787 88.805 84.855 88.9775C84.9337 89.0563 85.89 89.2325 86.985 89.3675C88.6837 89.5625 89.3287 89.5625 91.575 89.4275C92.55 89.39 93.51 89.2925 94.4662 89.1538C94.68 89.075 94.8975 88.6475 95.2462 87.5338C96.0487 84.9763 96.2025 84.0763 96.105 82.28L96.0262 80.6975L96.435 80.1688C97.3912 78.9575 98.1337 76.7713 98.445 74.21C98.8162 71.0863 98.1337 64.5425 96.8625 58.9175C96.2587 56.24 96.0037 54.6388 96.0037 53.4688V52.4338L95.0475 52.5313C91.6087 52.9025 87.45 52.805 84.9112 52.2763C83.5237 52.0025 80.0287 50.9675 79.2675 50.6338L78.6637 50.36L78.585 51.0425C78.525 51.4138 78.4687 51.785 78.39 52.175C78.2737 52.5838 78.3112 52.6813 79.035 53.3863C79.935 54.305 80.2087 54.7738 80.2087 55.3963C80.2087 55.7863 79.995 56.1013 78.9 57.2338C78.1149 58.0715 77.2438 58.8244 76.3012 59.48L75.03 60.3388L74.4825 62.2325C72.5287 69.1663 72.1575 75.4738 73.4475 79.985L73.7587 81.1175L73.1325 81.8975C70.7887 84.845 69.4012 87.0913 69.1875 88.3438C69.0625 88.9605 68.9187 89.5733 68.7562 90.1813C68.25 92.1163 67.8562 94.9475 67.6837 98.015C67.5635 100.583 67.3948 103.148 67.1775 105.71L67.08 106.471L68.055 106.764C68.6025 106.94 69.4237 107.135 69.8925 107.214C70.77 107.349 72.3937 107.311 72.645 107.176L72.6187 107.18ZM91.5825 96.4363C93.105 96.3388 94.4925 96.1025 94.7662 95.87C94.8825 95.7913 95.0212 95.3825 95.0587 94.97L95.1562 94.2275L93.945 94.5013C92.9887 94.6963 92.0325 94.8125 91.0725 94.8913C88.7662 94.9888 86.445 94.9288 84.1575 94.6963C83.3962 94.58 83.3962 94.58 83.6287 95.5738C83.8237 96.3163 83.865 96.3538 85.8562 96.4925C87.1837 96.6088 89.04 96.59 91.5787 96.4325L91.5825 96.4363ZM90.3112 93.0388C92.3025 92.8625 94.785 92.435 95.2725 92.18C95.43 92.1013 95.565 91.8088 95.625 91.475L95.8012 90.44L95.8987 89.9525L95.4112 90.05C93.2437 90.5 91.6012 90.635 88.32 90.635C85.1175 90.635 84.7462 90.6163 83.9062 90.3238C83.5834 90.1877 83.2397 90.1078 82.89 90.0875C82.755 90.1663 82.7325 91.28 82.8525 92.06C82.9312 92.5288 83.01 92.6075 83.4787 92.7425C84.9637 93.1513 87.465 93.2488 90.315 93.0163L90.3112 93.0388ZM54.0637 75.4213C59.0625 73.9775 65.6062 69.7363 70.9575 64.4263C72.6975 62.6863 72.9112 62.4538 73.1437 61.6738L73.455 60.6763C73.4925 60.5975 73.1812 60.4625 72.7725 60.365C71.7 60.11 70.8787 59.4875 70.8787 58.9213C70.8787 58.5875 70.6837 58.2575 70.1175 57.65C69.1987 56.615 68.9662 56.165 68.8687 55.1713L68.79 54.3688L67.695 53.5888C67.0687 53.1388 64.8825 51.9275 62.5575 50.7575C60.7872 49.8939 59.0544 48.9555 57.3637 47.945C55.41 46.6363 54.1012 45.0725 53.3587 43.22C53.2237 42.8488 53.0475 42.5375 52.9875 42.5375C52.83 42.5375 48.435 46.775 46.56 48.7663C41.9325 53.6488 38.7487 57.8863 36.735 61.8125C36.2287 62.7875 35.6812 63.9425 35.5237 64.37L35.2312 65.15L35.5837 66.4588C35.7975 67.1638 36.2475 68.315 36.6 68.9975C37.83 71.42 39.2962 72.8825 41.7187 74.075C44.3175 75.365 46.62 75.815 50.4675 75.755C52.5375 75.7363 53.145 75.6763 54.06 75.4025L54.0637 75.4213ZM14.61 58.2913C17.8912 55.3813 22.4212 52.1975 27.9712 48.8975C31.605 46.73 45.6487 39.6988 52.1137 36.8263C53.2875 36.2975 54.3412 35.81 54.4575 35.7538C54.5737 35.675 54.9075 34.835 55.2187 33.8975C56.5875 29.5625 57.27 28.7038 59.7487 28.1375C60.06 28.0588 60.1387 27.9613 60.1387 27.65C60.1387 27.0838 60.5287 25.775 60.8625 25.19C61.1175 24.74 61.1175 24.7213 60.9 24.7813C60.765 24.8188 59.9437 25.055 59.085 25.31C47.1712 28.7488 36.7612 33.3163 27.7762 39.02C18.1875 45.1138 12.66 52.4188 11.0587 61.1675L10.9425 61.8125L12.1162 60.6613C12.7425 60.0163 13.875 58.9625 14.6175 58.3175L14.61 58.2913ZM102.99 59.9525C103.946 59.465 105.431 57.2188 105.979 55.4413C106.136 54.815 106.447 54.23 106.897 53.7425C108.341 52.1413 109.534 49.2313 109.552 47.24C109.552 44.135 107.794 42.9425 105.236 44.27C104.902 44.4275 104.632 44.5438 104.591 44.5063C104.456 44.3713 105.176 43.6663 106.057 43.1188C107.209 42.3575 107.426 41.9075 107.426 40.2875C107.443 38.9781 107.054 37.6955 106.312 36.6163C105.96 36.0875 105.825 35.7388 105.881 35.5213L106.234 34.2125C106.721 32.4725 106.545 30.4813 105.784 29.2138C104.651 27.3013 103.264 26.3638 101.329 26.2063L100.196 26.1275L100.86 26.87C102.832 29 103.789 31.6738 103.399 33.9613C103.204 35.135 103.027 35.3675 101.895 35.8175L101.231 36.0913L101.31 36.9913C101.445 38.4575 101.194 39.53 100.256 41.5025C99.7875 42.5 99.435 43.3963 99.4762 43.4938C99.5925 43.8275 100.882 44.45 101.899 44.705L102.896 44.9413L102.27 45.155C101.449 45.41 101.272 45.7813 101.272 47.1275C101.272 48.3575 101.449 48.8675 102.345 50.2138C102.754 50.7988 103.027 51.4063 103.069 51.755C103.147 52.3025 103.129 52.34 102.679 52.4975C102.169 52.6407 101.644 52.7262 101.115 52.7525C99.2775 52.8688 99.1425 52.9288 98.3212 53.7088C97.5787 54.4138 97.56 54.4513 97.56 55.2313C97.56 56.3038 97.9687 58.475 98.2237 58.7675C98.5575 59.12 100.41 60.0388 101.134 60.1738C101.758 60.3305 102.418 60.2545 102.99 59.96V59.9525ZM75.9375 58.49C77.13 57.5525 78.0675 56.615 78.5925 55.8125C78.9262 55.325 78.945 55.2275 78.7875 54.815C78.5137 54.1888 76.7175 52.5688 75.72 52.0813C75.0553 51.7835 74.3523 51.5803 73.6312 51.4775L72.4012 51.32L71.64 50.3638C70.0575 48.41 69.18 46.8875 67.9275 43.9363C66.8325 41.435 65.8762 39.9725 64.3537 38.525C63.7275 37.94 63.2812 37.4525 63.3187 37.4525C63.3975 37.4525 64.14 37.8238 64.9987 38.2738C66.4237 39.035 66.6 39.095 67.245 38.9975C69.57 38.7238 71.6212 36.05 72.3637 32.3C72.5775 31.2463 73.0087 30.17 73.4587 29.525C73.4775 29.5063 74.3775 30.0913 75.4312 30.8525C78.1087 32.7463 78.6937 33.0388 80.2162 33.0988C81.2137 33.1363 81.78 33.0613 83.5762 32.63C87.405 31.6925 91.545 31.3213 94.065 31.655C95.49 31.85 97.5412 32.4763 99.0637 33.1963C100.567 33.9013 100.86 33.9388 101.347 33.5075C101.756 33.155 101.756 33.0988 101.756 31.79C101.737 29.855 101.032 27.7663 99.96 26.5175C99.4125 25.8725 97.8712 24.8188 96.345 24.0163C95.8024 23.7285 95.2624 23.436 94.725 23.1388C94.0012 22.7075 93.1837 22.7675 90.9562 23.3525C88.3762 24.0163 87.6937 24.0163 84.7462 23.255C82.245 22.6288 82.0912 22.61 79.6275 23C78.3187 23.195 75.0375 23.0788 73.9425 22.7863C73.395 22.6288 72.8475 22.475 72.3225 22.28C71.3662 21.9088 69.705 21.8488 68.2012 22.1225C65.2125 22.6513 62.9475 24.2713 62.1262 26.4763C61.695 27.59 61.755 28.1188 62.3212 28.4675C63.2212 29.0338 64.41 30.5788 64.41 31.1825C64.41 31.22 64.1175 30.9688 63.7837 30.6163C62.9437 29.7388 62.1825 29.345 61.2825 29.345C60.7002 29.3612 60.134 29.5397 59.6476 29.8603C59.1613 30.181 58.7742 30.6311 58.53 31.16C58.2672 31.85 58.0455 32.555 57.8662 33.2713C57.3187 35.2625 56.8312 36.32 55.7962 37.7263C54.8775 38.9975 54.7425 39.5638 55.0725 40.9888C55.8937 44.5813 57.3187 46.0288 63.2737 49.4075C66.3975 51.185 67.9987 52.1825 69.1725 53.06C70.0725 53.7238 70.0912 53.765 70.0125 54.2713C69.8362 55.445 70.5787 56.7125 72.045 57.7475C72.4162 58.0025 72.6487 58.2763 72.6487 58.4713C72.6487 58.8238 73.6462 59.3113 74.3662 59.3113C74.775 59.3113 75.09 59.135 75.93 58.49H75.9375ZM100.02 51.905C102.285 51.9838 102.401 51.8075 101.194 50.4013C99.9225 48.935 99.5737 47.7463 100.042 46.4375L100.237 45.9313L99.435 45.5413C99.1612 45.4063 98.8875 45.2675 98.6137 45.17C98.4787 45.6988 98.34 46.205 98.2237 46.7338C97.9312 47.9263 97.5787 51.0125 97.56 52.3213C97.56 52.4375 97.755 52.4 98.0887 52.1863C98.5575 51.9125 98.7937 51.875 100.024 51.9125L100.02 51.905ZM92.4225 51.7888C93.7912 51.71 95.1975 51.6125 95.5687 51.5525L96.2512 51.455L96.33 49.2088C96.4462 46.0063 96.915 44.1125 98.3025 41.0825C99.2775 38.9338 99.7087 37.0588 99.495 35.6525C99.4162 35.0488 99.3787 35.0075 98.5575 34.655C97.0537 34.0579 95.4877 33.6315 93.8887 33.3838C92.3475 33.17 87.8137 33.2863 86.115 33.62C85.41 33.7363 84.1237 34.01 83.265 34.2238C81.135 34.7113 80.0025 34.655 78.3825 33.95C76.7812 33.245 75.765 32.6038 74.8087 31.7038C74.0475 30.9988 73.9687 30.9613 73.7737 31.1975C73.6162 31.3738 73.5375 31.9025 73.4812 33.035C73.4212 34.775 73.1475 35.69 72.3862 36.92C72.2171 37.1731 72.0727 37.4418 71.955 37.7225C71.955 37.7825 72.54 38.465 73.2637 39.2075C75.765 41.8063 76.995 42.47 78.9675 42.3313C79.6125 42.2713 80.0625 42.2938 80.0625 42.3688C80.0625 42.5263 78.7912 43.52 78.2662 43.7938C78.0112 43.9288 77.955 44.0675 77.9925 44.36L78.3037 46.4113C78.48 47.585 78.615 48.1288 78.7912 48.2863C79.26 48.6763 81.6825 49.9288 83.205 50.5513C85.1962 51.3538 86.2912 51.6463 87.8137 51.7813C89.6887 51.9388 89.7262 51.9388 92.4225 51.7813V51.7888ZM76.2712 49.64C76.3087 49.58 76.1737 48.4475 75.9187 47.1388C75.6075 45.3613 75.4312 44.7163 75.2362 44.54C75.1012 44.4238 74.3775 43.9138 73.6537 43.3888C72.7028 42.705 71.8018 41.9543 70.9575 41.1425L69.6112 39.815L68.8875 40.1863L68.1262 40.595C68.1903 40.9001 68.295 41.1952 68.4375 41.4725C68.6512 41.9413 69.0825 43.0925 69.3937 44.03C70.215 46.4713 70.86 47.645 72.48 49.7713L73.0837 50.5738L74.235 50.75C74.88 50.8475 75.525 50.9863 75.7012 51.0425C75.975 51.1588 76.0125 51.1025 76.0912 50.4763C76.1287 50.2025 76.1887 49.91 76.2675 49.6363L76.2712 49.64ZM101.017 25.3438C102.015 25.2463 102.191 25.1075 101.76 24.6613C101.486 24.3875 100.86 24.3688 100.354 24.6013C100.02 24.7588 99.945 24.7175 99.4162 24.1513C98.8687 23.5475 98.8312 23.525 98.145 23.6038C97.5187 23.6825 97.4212 23.6638 97.3425 23.4088C97.0986 22.9899 96.7955 22.6084 96.4425 22.2763C95.9989 21.7722 95.4443 21.3781 94.8225 21.125C93.6112 20.6563 92.9287 20.7163 91.7737 21.3613C88.4325 23.1763 88.5712 23.1575 85.3462 22.3363C82.3387 21.575 80.0925 20.795 79.3687 20.3038C78.765 19.895 77.475 19.445 76.3987 19.3063C75.5962 19.19 75.09 19.3663 74.3287 19.9888L73.92 20.3225L74.2912 20.9675C74.7975 21.8675 74.7412 21.9238 73.98 21.26C73.1587 20.5775 72.1837 20.1088 71.5575 20.0863C71.1075 20.0863 69.78 20.6713 69.6225 20.9263C69.5625 21.005 69.975 21.1025 70.5225 21.14C71.0887 21.2 71.8687 21.395 72.3975 21.6088C73.7662 22.1938 74.4675 22.3888 75.7162 22.5088C77.085 22.6438 79.5637 22.49 79.8562 22.2538C80.0137 22.1188 80.4412 22.0963 81.3412 22.175C82.5337 22.2538 83.0212 22.37 85.8525 23.1313C87.495 23.5813 88.6462 23.54 90.6 23.015C91.5 22.76 92.6325 22.5088 93.1012 22.4488C93.9037 22.37 94.0575 22.4113 95.31 22.9775C97.3012 23.8775 98.3587 24.4438 98.9437 24.9688C99.5287 25.475 99.6075 25.475 101.014 25.3588L101.017 25.3438ZM89.8837 21.9275L91.0762 21.3013L91.0387 20.09C91.02 19.25 90.9787 18.4288 90.9412 17.6113L90.8437 16.3625L89.6512 17.2813C88.9462 17.8288 88.2637 18.2375 87.9712 18.2975C87.1125 18.455 82.875 18.2975 82.4812 18.0838C81.9567 17.6963 81.4661 17.2647 81.015 16.7938L79.92 15.68L79.9012 16.3438C79.9012 16.6963 79.8637 17.3 79.785 17.6713C79.6875 18.3763 79.6875 18.395 80.4487 19.3513C80.8575 19.88 81.1912 20.3488 81.1912 20.405C81.1912 20.7763 86.835 22.535 88.1062 22.5538C88.515 22.5538 89.025 22.3775 89.8837 21.9275V21.9275ZM87.6187 17.4913C89.025 17.2175 89.7075 16.2013 90.2362 13.625C90.7837 10.85 91.0575 6.49625 90.8025 4.64C90.5662 2.96 88.6912 2.2175 85.1175 2.33375C82.89 2.4125 81.9712 2.62625 81.21 3.27125C80.7412 3.66125 80.7412 3.7025 80.5275 5.555C80.1375 9.11 80.7225 14.1688 81.7387 16.0625C82.2262 16.9813 82.6575 17.3113 83.5537 17.4688C84.57 17.645 86.7375 17.645 87.615 17.4875L87.6187 17.4913Z" fill="black"/>
</g>
<defs>
<clipPath id="clip0_2317_473">
<rect width="120" height="120" fill="white" transform="translate(0 0.5)"/>
</clipPath>
</defs>
</svg>
