<svg width="88" height="89" viewBox="0 0 88 89" fill="none" xmlns="http://www.w3.org/2000/svg">
<g clip-path="url(#clip0_2317_441)">
<path fill-rule="evenodd" clip-rule="evenodd" d="M44 0.5C19.69 0.5 0 20.19 0 44.5C0 63.97 12.595 80.415 30.085 86.245C32.285 86.63 33.11 85.31 33.11 84.155C33.11 83.11 33.055 79.645 33.055 75.96C22 77.995 19.14 73.265 18.26 70.79C17.765 69.525 15.62 65.62 13.75 64.575C12.21 63.75 10.01 61.715 13.695 61.66C17.16 61.605 19.635 64.85 20.46 66.17C24.42 72.825 30.745 70.955 33.275 69.8C33.66 66.94 34.815 65.015 36.08 63.915C26.29 62.815 16.06 59.02 16.06 42.19C16.06 37.405 17.765 33.445 20.57 30.365C20.13 29.265 18.59 24.755 21.01 18.705C21.01 18.705 24.695 17.55 33.11 23.215C36.63 22.225 40.37 21.73 44.11 21.73C47.85 21.73 51.59 22.225 55.11 23.215C63.525 17.495 67.21 18.705 67.21 18.705C69.63 24.755 68.09 29.265 67.65 30.365C70.455 33.445 72.16 37.35 72.16 42.19C72.16 59.075 61.875 62.815 52.085 63.915C53.68 65.29 55.055 67.93 55.055 72.055C55.055 77.94 55 82.67 55 84.155C55 85.31 55.825 86.685 58.025 86.245C66.7597 83.296 74.3497 77.6822 79.7268 70.1937C85.1039 62.7052 87.9974 53.719 88 44.5C88 20.19 68.31 0.5 44 0.5Z" fill="black"/>
</g>
<defs>
<clipPath id="clip0_2317_441">
<rect width="88" height="88" fill="white" transform="translate(0 0.5)"/>
</clipPath>
</defs>
</svg>
