<svg width="113" height="102" viewBox="0 0 113 102" fill="none" xmlns="http://www.w3.org/2000/svg">
<g clip-path="url(#clip0_2317_445)">
<path d="M92.9055 33.2027C91.703 32.7886 90.4904 32.4051 89.2686 32.0523C89.4739 31.2106 89.6628 30.3791 89.8305 29.5623C92.5838 16.1483 90.7838 5.34178 84.636 1.78375C78.7415 -1.62722 69.1016 1.92949 59.3658 10.4334C58.4063 11.273 57.4681 12.1368 56.5521 13.024C55.9389 12.434 55.3148 11.8556 54.6803 11.2888C44.4767 2.19616 34.2492 -1.63608 28.108 1.93215C22.2188 5.35374 20.475 15.5127 22.9537 28.2254C23.2003 29.4844 23.4788 30.737 23.7888 31.9819C22.3411 32.3947 20.9442 32.8342 19.6073 33.3019C7.64437 37.4881 0.00469971 44.0483 0.00469971 50.8529C0.00469971 57.8808 8.20623 64.93 20.6661 69.2043C21.6762 69.5495 22.6948 69.8692 23.7208 70.1634C23.3876 71.5042 23.0918 72.854 22.8337 74.2114C20.4706 86.7035 22.3159 96.6223 28.1892 100.022C34.2554 103.533 44.4369 99.9247 54.3505 91.2268C55.1544 90.5196 55.9406 89.7925 56.7083 89.046C57.7003 90.0066 58.7188 90.9393 59.7626 91.843C69.3659 100.136 78.8501 103.485 84.7177 100.076C90.7781 96.555 92.7479 85.8995 90.1907 72.9356C89.9892 71.92 89.7633 70.9094 89.5131 69.9047C90.2282 69.6921 90.9299 69.4732 91.6141 69.2455C104.567 64.9384 112.995 57.9747 112.995 50.8529C112.995 44.0235 105.109 37.419 92.9055 33.2027V33.2027ZM90.0962 64.6474C89.4783 64.8525 88.8445 65.0505 88.1983 65.2432C86.7683 60.6995 84.8386 55.8684 82.4768 50.8764C84.7305 46.0036 86.586 41.234 87.9759 36.72C89.1318 37.0558 90.2533 37.4097 91.3347 37.7832C101.791 41.3961 108.169 46.7372 108.169 50.8529C108.169 55.2367 101.281 60.9277 90.0962 64.6474V64.6474ZM85.4556 73.8765C86.5864 79.6087 86.7475 84.7916 85.9985 88.8435C85.3259 92.4844 83.9726 94.9115 82.299 95.8839C78.7384 97.9526 71.1235 95.2637 62.9109 88.1706C61.9401 87.3305 60.9927 86.4634 60.0698 85.5703C63.2539 82.0756 66.4357 78.0131 69.5412 73.5008C75.0036 73.0144 80.1641 72.2188 84.8439 71.1331C85.0693 72.0426 85.2733 72.9573 85.4556 73.8765V73.8765ZM38.5257 95.5264C35.0468 96.7592 32.2759 96.7946 30.6009 95.8254C27.0368 93.7624 25.5551 85.798 27.5762 75.1151C27.8164 73.8527 28.0915 72.5972 28.4011 71.3502C33.0293 72.3779 38.1523 73.1168 43.6275 73.5624C46.7541 77.9776 50.0278 82.0358 53.327 85.5894C52.6259 86.2703 51.9081 86.9338 51.1745 87.5793C46.7903 91.4252 42.3974 94.154 38.5257 95.5264V95.5264ZM22.2277 64.6204C16.718 62.7302 12.168 60.2738 9.04925 57.5933C6.24655 55.1848 4.83196 52.7932 4.83196 50.8529C4.83196 46.7234 10.9657 41.4564 21.1962 37.8766C22.4378 37.4425 23.7371 37.0327 25.0855 36.6482C26.4997 41.2641 28.3543 46.0904 30.5925 50.9707C28.3252 55.9233 26.4441 60.8267 25.0162 65.497C24.0797 65.2278 23.1499 64.9355 22.2277 64.6204V64.6204ZM27.6909 27.2947C25.5675 16.4031 26.9777 8.18706 30.5267 6.12497C34.3066 3.92867 42.6653 7.06011 51.4755 14.9115C52.05 15.4247 52.6152 15.9482 53.1708 16.4819C49.8879 20.02 46.6442 24.048 43.5454 28.4371C38.2313 28.9315 33.1445 29.7253 28.4677 30.7889C28.1796 29.631 27.9206 28.4661 27.6909 27.2951V27.2947ZM76.4301 39.3739C75.3254 37.4589 74.1798 35.5679 72.994 33.7024C76.5991 34.16 80.0533 34.7673 83.2969 35.5098C82.3232 38.6425 81.1095 41.9175 79.6808 45.2753C78.6364 43.2867 77.5527 41.3191 76.4301 39.3739V39.3739ZM56.5543 19.9443C58.7806 22.3652 61.0104 25.0678 63.2035 28.0003C58.7545 27.7894 54.2981 27.7886 49.849 27.9977C52.0444 25.0922 54.2932 22.3931 56.5543 19.9443ZM36.551 39.4071C35.4424 41.3367 34.3789 43.292 33.3612 45.2713C31.9559 41.9255 30.7532 38.6355 29.7711 35.4584C32.9949 34.7346 36.4327 34.1427 40.0149 33.6935C38.8158 35.5705 37.6609 37.4754 36.551 39.4067V39.4071ZM40.1177 68.3569C36.4168 67.9423 32.9273 67.381 29.7045 66.6767C30.702 63.4429 31.9312 60.0829 33.367 56.6653C34.3886 58.6461 35.4566 60.6026 36.57 62.533C37.7149 64.5176 38.9004 66.4614 40.1177 68.3569ZM56.6876 82.1027C54.3995 79.6255 52.1177 76.8848 49.8892 73.9372C52.0528 74.0222 54.2583 74.0656 56.5 74.0656C58.8031 74.0656 61.0797 74.0138 63.3205 73.9137C61.1203 76.9145 58.8989 79.6592 56.6876 82.1027ZM79.7262 56.4907C81.2366 59.946 82.5095 63.2883 83.5202 66.4667C80.2444 67.2171 76.7072 67.8214 72.9803 68.2701C74.1746 66.3699 75.331 64.4461 76.449 62.4998C77.5857 60.5214 78.6784 58.5179 79.7262 56.4907V56.4907ZM72.268 60.0794C70.5564 63.0634 68.7486 65.9909 66.8475 68.8571C63.4037 69.1018 59.9524 69.2234 56.5 69.2216C52.9836 69.2216 49.5635 69.1118 46.27 68.8974C44.3192 66.0378 42.4769 63.1053 40.7471 60.1059H40.7475C39.0258 57.1225 37.4177 54.0745 35.9265 50.9685C37.4139 47.8618 39.0172 44.8124 40.733 41.8267L40.7325 41.8271C42.4477 38.8407 44.2752 35.9206 46.2113 33.0734C49.5714 32.8182 53.0172 32.6853 56.4996 32.6853H56.5C59.9983 32.6853 63.4485 32.8195 66.8078 33.0765C68.7242 35.9195 70.5401 38.8295 72.2521 41.801C73.9736 44.7801 75.5981 47.8147 77.123 50.8999C75.6138 54.0166 73.9944 57.0783 72.268 60.0794V60.0794ZM82.2253 5.98056C86.0087 8.17067 87.4802 17.0024 85.103 28.5842C84.9511 29.3231 84.7808 30.0757 84.5954 30.839C79.9072 29.7528 74.8169 28.9452 69.4873 28.4433C66.3827 24.006 63.1656 19.9717 59.9361 16.4792C60.7825 15.6604 61.649 14.8628 62.5349 14.0871C70.8768 6.80141 78.6731 3.92468 82.2253 5.98056V5.98056ZM56.5 40.7263C62.0723 40.7263 66.5897 45.2603 66.5897 50.8529C66.5897 56.4456 62.0723 60.9795 56.5 60.9795C50.9277 60.9795 46.4103 56.4456 46.4103 50.8529C46.4103 45.2603 50.9277 40.7263 56.5 40.7263V40.7263Z" fill="#00D8FF"/>
</g>
<defs>
<clipPath id="clip0_2317_445">
<rect width="113" height="101" fill="white" transform="translate(0 0.5)"/>
</clipPath>
</defs>
</svg>
