<svg width="32" height="33" viewBox="0 0 32 33" fill="none" xmlns="http://www.w3.org/2000/svg">
<path d="M16.875 2.375C8.59152 2.375 1.875 9.09152 1.875 17.375C1.875 25.6585 8.59152 32.375 16.875 32.375C25.1585 32.375 31.875 25.6585 31.875 17.375C31.875 9.09152 25.1585 2.375 16.875 2.375ZM24.0837 13.6819C24.0937 13.8393 24.0937 14.0033 24.0937 14.1641C24.0937 19.0792 20.3504 24.7411 13.51 24.7411C11.4007 24.7411 9.44531 24.1283 7.79799 23.0737C8.09933 23.1071 8.38728 23.1205 8.69531 23.1205C10.4364 23.1205 12.0368 22.5312 13.3125 21.5335C11.6786 21.5 10.3058 20.4286 9.83705 18.9554C10.4096 19.0391 10.9252 19.0391 11.5145 18.8884C10.6732 18.7175 9.91699 18.2605 9.37438 17.5953C8.83178 16.93 8.53623 16.0973 8.53795 15.2388V15.192C9.03013 15.4699 9.60937 15.6406 10.2154 15.6641C9.70595 15.3245 9.28814 14.8645 8.99903 14.3249C8.70993 13.7852 8.55845 13.1825 8.55804 12.5703C8.55804 11.8772 8.73884 11.2444 9.06362 10.6953C9.99744 11.8449 11.1627 12.7851 12.4837 13.4548C13.8047 14.1245 15.2518 14.5088 16.731 14.5826C16.2054 12.0547 18.0937 10.0089 20.3638 10.0089C21.4353 10.0089 22.3996 10.4576 23.0792 11.1808C23.9196 11.0234 24.7232 10.7087 25.4397 10.2868C25.1618 11.1473 24.5792 11.8739 23.8058 12.3326C24.5558 12.2522 25.279 12.0446 25.9487 11.7533C25.4431 12.4967 24.8103 13.1563 24.0837 13.6819V13.6819Z" fill="#666666"/>
</svg>
