<svg width="120" height="120" viewBox="0 0 120 120" fill="none" xmlns="http://www.w3.org/2000/svg">
<path d="M22.1325 101.654L13.71 7.9375H106.29L97.8562 101.639L59.9437 112.062L22.1325 101.654Z" fill="#1572B6"/>
<path d="M60 104.097L90.6375 95.674L97.845 15.6019H60V104.097Z" fill="#33A9DC"/>
<path d="M60 49.554H75.3375L76.395 37.7842H60V26.2896H89.0625L88.785 29.3724L85.9387 61.0487H60V49.554V49.554Z" fill="white"/>
<path d="M60.0712 79.4045L60.0187 79.4193L47.1112 75.9609L46.2862 66.7942H34.65L36.2737 84.8413L60.015 91.3788L60.0712 91.364V79.4045V79.4045Z" fill="#EBEBEB"/>
<path d="M74.3512 60.5615L72.9563 75.9534L60.03 79.4119V91.3714L83.79 84.8412L83.9663 82.9001L85.98 60.5615H74.3512V60.5615Z" fill="white"/>
<path d="M60.0413 26.2896V37.7842H32.0438L31.8113 35.1997L31.2825 29.3724L31.005 26.2896H60.0413V26.2896ZM60 49.554V61.0487H47.2538L47.0213 58.4642L46.4963 52.6369L46.2188 49.554H60V49.554Z" fill="#EBEBEB"/>
</svg>
