<svg width="112" height="113" viewBox="0 0 112 113" fill="none" xmlns="http://www.w3.org/2000/svg">
<path d="M101.535 18.105L81.354 8.38899C80.2143 7.83948 78.9319 7.65814 77.6845 7.87011C76.4372 8.08208 75.2867 8.67686 74.3925 9.57199L8.32998 69.8C7.52845 70.5273 7.04865 71.5432 6.99614 72.6243C6.94363 73.7053 7.32271 74.7629 8.04998 75.5645C8.13748 75.659 8.22498 75.75 8.31948 75.834L13.713 80.734C14.4178 81.3754 15.3249 81.7497 16.277 81.7919C17.229 81.8341 18.1657 81.5416 18.9245 80.965L98.497 20.625C99.098 20.1689 99.8144 19.8897 100.566 19.8186C101.317 19.7476 102.073 19.8877 102.749 20.2231C103.424 20.5585 103.993 21.0758 104.391 21.717C104.789 22.3581 105 23.0975 105 23.852V23.6175C105 22.4656 104.675 21.3372 104.062 20.362C103.449 19.3868 102.573 18.6045 101.535 18.105V18.105Z" fill="#0065A9"/>
<path d="M101.535 94.895L81.354 104.615C80.214 105.162 78.9319 105.343 77.6849 105.131C76.4379 104.919 75.2875 104.325 74.3925 103.432L8.32998 43.2C7.52845 42.4727 7.04865 41.4568 6.99614 40.3758C6.94363 39.2947 7.32271 38.2371 8.04998 37.4355C8.13748 37.341 8.22498 37.25 8.31948 37.166L13.713 32.266C14.4185 31.6219 15.3277 31.2459 16.2821 31.2037C17.2365 31.1615 18.1754 31.4557 18.935 32.035L98.497 92.375C99.098 92.8311 99.8144 93.1104 100.566 93.1814C101.317 93.2524 102.073 93.1123 102.749 92.7769C103.424 92.4415 103.993 91.9242 104.391 91.283C104.789 90.6419 105 89.9025 105 89.148V89.4C104.996 90.5488 104.669 91.6733 104.057 92.6451C103.444 93.6168 102.57 94.3965 101.535 94.895V94.895Z" fill="#007ACC"/>
<path d="M81.354 104.614C80.214 105.162 78.932 105.343 77.685 105.131C76.438 104.919 75.2876 104.325 74.3925 103.431C74.8952 103.928 75.533 104.264 76.2261 104.399C76.9193 104.534 77.6369 104.462 78.289 104.191C78.9412 103.92 79.4988 103.463 79.8921 102.876C80.2855 102.29 80.4969 101.6 80.5 100.894V12.106C80.5006 11.3965 80.2906 10.7028 79.8966 10.1127C79.5026 9.52271 78.9424 9.06288 78.2868 8.79152C77.6313 8.52016 76.91 8.44946 76.2142 8.5884C75.5184 8.72734 74.8796 9.06965 74.3785 9.57197C75.2729 8.67717 76.4232 8.08235 77.6703 7.8698C78.9174 7.65724 80.1998 7.83744 81.34 8.38547L101.518 18.0875C102.559 18.5845 103.438 19.3657 104.054 20.3411C104.671 21.3165 104.998 22.4463 105 23.6V89.4C105 90.5528 104.675 91.6822 104.061 92.6581C103.448 93.634 102.571 94.4167 101.532 94.916L81.354 104.614Z" fill="#1F9CF0"/>
</svg>
